<?xml version="1.0" encoding="UTF-8"?>
<svg viewBox="0 0 133.17 109.797" xmlns="http://www.w3.org/2000/svg">
 <g transform="rotate(-10.49 107 64.414)">
  <g transform="rotate(12.262 107.98 64.279)">
   <path d="m108.07 36.434s-3.9004 0.269-4.6424 4.105c0 0-0.204 2.219 0.40099 4.774 0 0 2.1524 8.477-0.269 13.992 0 0-3.362 7.064-3.632 8.681 0 0-1.279 6.929-0.069 12.039 0 0 2.559 8.747 4.441 11.64 0 0 3.8354 1.011 7.1314-0.066002 0 0 3.971-6.46 4.777-12.312 0 0 1.009-6.188-0.069-10.628 0 0-2.287-5.854-4.506-11.438 0 0-0.741-3.363-0.134-7.802 0 0 1.613-6.796 0.738-10.025 0.001999 9.99e-4 -1.344-2.759-4.167-2.96z" fill="#fff"/>
   <path d="m107.47 35.638c-7.5354 0.645-3.8364 10.089-3.5264 14.692 0.26701 3.878-0.58199 7.11-2.162 10.569-1.085 2.369-2.345 4.791-2.726 7.392-0.539 3.689-0.874 7.884 0.20699 11.506 0.958 3.201 2.015 6.396 3.361 9.462 0.458 1.035 1.014 2.445 2.01 3.088 1.1764 0.758 3.4394 0.564 4.7354 0.522 1.783-0.058006 2.586-0.169 3.383-1.599 1.021-1.832 1.893-3.742 2.656-5.691 1.744-4.461 2.424-9.788 1.759-14.541-0.286-2.037-1.106-3.811-1.856-5.719-1.063-2.709-2.753-5.665-3.141-8.559-0.646-4.814 0.924-9.235 1.05-13.994 0.086998-3.45-2.141-6.645-5.75-7.128-0.2-0.027 0.637 1.517 1.204 1.593 3.785 0.506 3.24 3.801 2.934 6.696-0.223 2.128-0.791 4.19-0.983 6.315-0.178 1.948-0.375 4.682 0.376 6.569 1.39 3.498 2.77 7.003 4.145 10.511 1.799 4.599 0.777 11.054-0.737 15.663-0.871 2.653-2.119 5.219-3.528 7.627-0.516 0.881-3.08 0.689-3.981 0.678-1.062-0.011002-2.1634-0.161-3.1964-0.422 0.38 0.342 0.758 0.682 1.136 1.021-1.481-2.383-2.319-5.217-3.198-7.861-0.711-2.145-1.314-4.125-1.506-6.396-0.243-2.878 0.011002-5.843 0.471-8.69 0.345-2.12 1.5-4.184 2.376-6.121 0.824-1.826 1.691-3.513 2.11-5.491 0.6554-3.071 0.3484-6.356-0.15-9.429-0.35799-2.211-0.933-4.332-0.797-6.603 0.133-2.217 2.4714-3.893 4.5314-4.067 0.319-0.028999-0.682-1.639-1.207-1.593z"/>
  </g>
  <g transform="rotate(12.011 109.85 53.334)">
   <path d="m113.2 51.915c-3.027-0.479-5.196-0.418-6.692-0.19101l0.142 3.395c2.287-0.59601 4.627-0.45801 6.504-0.12701-0.094994-0.88098-0.03701-2.096 0.04599-3.077z"/>
  </g>
  <g transform="rotate(13.656 109.17 57.707)">
   <path d="m112.71 56.015c-3.358-0.51801-5.653-0.375-7.133-0.07999l-0.812 3.812c3.065-1.301 6.453-0.99499 8.82-0.47998l-0.875-3.252z"/>
  </g>
  <g transform="rotate(12.529 108.57 54.732)">
   <polygon points="109.11 60.316 108.74 54.466 109.18 49.216 108.23 48.679 108.11 54.464 107.96 60.786" fill="#fff"/>
  </g>
 </g>
 <g transform="rotate(54.254 100.81 70.291)">
  <path d="m101.56 37.079s-4.69 0.323-5.58 4.933c0 0-0.24099 2.667 0.486 5.741 0 0 2.588 10.188-0.32502 16.816 0 0-4.043 8.49-4.366 10.432 0 0-1.537 8.326-0.083008 14.474 0 0 3.076 10.511 5.339 13.987 0 0 4.61 1.213 8.573-0.079987 0 0 4.769-7.762 5.738-14.797 0 0 1.216-7.438-0.081024-12.775 0 0-2.75-7.035-5.417-13.746 0 0-0.88998-4.043-0.16098-9.38 0 0 1.94-8.166 0.88897-12.047 0-0.001011-1.617-3.316-5.012-3.558z" fill="#fff"/>
  <path d="m100.33 36.032c-2.645 0.22-4.755 1.993-5.565 4.481-0.865 2.664 0.328 5.869 0.807 8.542 0.798 4.427 1.01 9.196-0.37 13.525-0.851 2.669-2.36 5.193-3.439 7.776-1.041 2.488-1.541 4.643-1.809 7.318-0.382 3.805-0.51 7.93 0.605 11.631 1.004 3.322 2.11 6.623 3.419 9.844 0.552 1.359 1.14 2.859 2.035 4.043 0.718 0.947 1.658 0.983 2.775 1.146 2.011 0.299 4.236 0.33 6.204-0.241 1.002-0.291 1.192-1.082 1.686-1.991 2.016-3.711 3.6804-7.687 4.5464-11.83 0.666-3.18 0.809-6.542 0.686-9.775-0.129-3.445-1.265-6.135-2.508-9.296-1.4514-3.694-3.4774-7.397-3.8224-11.385-0.3-3.487 0.286-6.691 0.854-10.082 0.435-2.602 1.375-6.794-0.016998-9.243-1.292-2.272-3.441-4.136-6.087-4.463-0.206-0.025002 0.636 1.522 1.204 1.593 7.116 0.877 3.079 11.08 2.631 15.676-0.23399 2.389-0.509 5.784 0.411 8.103 1.68 4.225 3.349 8.455 5.0064 12.689 1.18 3.012 1.021 6.512 0.827 9.691-0.183 3.017-0.69 5.95-1.6174 8.832-1.055 3.285-2.582 6.457-4.318 9.434-0.641 1.1-3.554 0.885-4.708 0.877-1.32-0.012001-2.683-0.188-3.964-0.512 0.377 0.34 0.755 0.68 1.135 1.021-1.838-2.937-2.866-6.452-3.943-9.72-0.906-2.745-1.613-5.252-1.792-8.175-0.199-3.318 0.085999-6.721 0.646-9.995 0.431-2.53 1.858-5.028 2.907-7.341 1.058-2.337 2.11-4.462 2.56-7.025 0.632-3.609 0.272-7.4-0.34-10.985-0.442-2.58-1.117-5.086-0.904-7.739 0.212-2.637 2.995-4.627 5.464-4.832 0.317-0.026001-0.679-1.636-1.205-1.592z"/>
  <path d="m104.84 54.236c-3.64-0.57699-6.25-0.50399-8.05-0.233l0.172 4.083c2.749-0.71902 5.563-0.55402 7.819-0.15601-0.116-1.059-0.043007-2.518 0.058983-3.694z"/>
  <path d="m105 59.611c-4.034-0.61999-6.797-0.45098-8.572-0.097012l-0.978 4.583c3.688-1.565 7.756-1.197 10.604-0.577l-1.054-3.909z"/>
  <polygon points="99.477 65.532 99.038 58.503 99.556 52.192 98.426 51.544 98.269 58.499 98.102 66.099" fill="#fff"/>
 </g>
 <g transform="rotate(-38.242 20.791 65.596)">
  <path d="m20.878 37.749s-3.9 0.26999-4.643 4.104c0 0-0.202 2.22 0.40401 4.776 0 0 2.152 8.476-0.27001 13.992 0 0-3.365 7.063-3.633 8.679 0 0-1.278 6.928-0.06801 12.041 0 0 2.558 8.746 4.44 11.639 0 0 3.836 1.01 7.133-0.065979 0 0 3.969-6.459 4.775-12.312 0 0 1.009-6.188-0.06601-10.629 0 0-2.289-5.853-4.509-11.436 0 0-0.73999-3.363-0.134-7.804 0 0 1.614-6.795 0.74103-10.023 0.00198-9.99e-4 -1.346-2.76-4.17-2.961z" fill="#fff"/>
  <path d="m20.275 36.952c-7.533 0.64599-3.835 10.09-3.523 14.692 0.26201 3.878-0.584 7.112-2.165 10.569-1.082 2.367-2.345 4.791-2.725 7.391-0.539 3.69-0.875 7.885 0.209 11.506 0.957 3.202 2.012 6.4 3.36 9.461 0.45601 1.037 1.013 2.447 2.011 3.092 1.173 0.755 3.438 0.56201 4.734 0.51998 1.785-0.056969 2.586-0.16799 3.384-1.598 1.019-1.832 1.892-3.742 2.654-5.693 1.744-4.46 2.424-9.789 1.758-14.541-0.284-2.035-1.104-3.809-1.854-5.719-1.065-2.71-2.755-5.663-3.143-8.559-0.64398-4.812 0.927-9.235 1.05-13.993 0.09-3.451-2.14-6.646-5.75-7.128-0.199-0.027012 0.638 1.517 1.205 1.593 3.785 0.50399 3.241 3.803 2.936 6.699-0.225 2.125-0.79199 4.187-0.98498 6.313-0.17801 1.947-0.37403 4.68 0.37799 6.566 1.389 3.502 2.768 7.004 4.141 10.512 1.804 4.598 0.78 11.055-0.73398 15.664-0.87201 2.653-2.121 5.217-3.528 7.625-0.51801 0.88097-3.082 0.689-3.981 0.68-1.065-0.013-2.163-0.16001-3.196-0.422 0.37801 0.34 0.75701 0.681 1.136 1.021-1.482-2.385-2.32-5.217-3.198-7.862-0.711-2.146-1.317-4.125-1.509-6.394-0.241-2.88 0.012999-5.844 0.473-8.691 0.344-2.121 1.5-4.183 2.376-6.123 0.82401-1.824 1.689-3.512 2.11-5.492 0.65499-3.07 0.35-6.354-0.14899-9.426-0.35901-2.211-0.93401-4.331-0.79801-6.603 0.13199-2.217 2.471-3.893 4.531-4.068 0.319-0.027008-0.68201-1.638-1.208-1.592z"/>
  <path d="m24.631 52.232c-3.029-0.47901-5.199-0.41999-6.696-0.193l0.143 3.395c2.288-0.59598 4.627-0.457 6.506-0.12698-0.097019-0.88202-0.037998-2.097 0.047001-3.075z"/>
  <path d="m24.766 56.704c-3.357-0.518-5.653-0.375-7.133-0.080002l-0.812 3.811c3.067-1.302 6.453-0.993 8.821-0.479l-0.876-3.252z"/>
  <polygon points="20.167 61.63 19.802 55.78 20.235 50.529 19.292 49.993 19.161 55.778 19.023 62.101" fill="#fff"/>
 </g>
 <g transform="rotate(-13.542 28.584 56.166)">
  <path d="m28.702 22.704s-4.688 0.323-5.579 4.933c0 0-0.24197 2.667 0.48401 5.741 0 0 2.587 10.188-0.323 16.816 0 0-4.043 8.49-4.366 10.432 0 0-1.535 8.326-0.083 14.474 0 0 3.074 10.511 5.339 13.987 0 0 4.608 1.213 8.571-0.079987 0 0 4.769-7.762 5.742-14.797 0 0 1.213-7.438-0.08099-12.775 0 0-2.75-7.035-5.418-13.746 0 0-0.89001-4.043-0.16101-9.38 0 0 1.939-8.166 0.88699-12.047-9.69e-4 -0.001011-1.616-3.316-5.012-3.558z" fill="#fff"/>
  <path d="m28.099 21.907c-2.643 0.22-4.755 1.993-5.564 4.481-0.8649 2.664 0.328 5.869 0.809 8.542 0.794 4.427 1.006 9.196-0.371 13.525-0.854 2.669-2.3589 5.193-3.442 7.776-1.038 2.488-1.538 4.643-1.807 7.318-0.384 3.805-0.51 7.93 0.606 11.631 1.003 3.322 2.11 6.625 3.418 9.844 0.551 1.359 1.141 2.859 2.033 4.043 0.72 0.947 1.659 0.983 2.7771 1.146 2.0119 0.299 4.2389 0.33 6.2059-0.241 1-0.291 1.191-1.082 1.687-1.991 2.014-3.711 3.677-7.687 4.544-11.83 0.664-3.18 0.809-6.542 0.687-9.775-0.13-3.445-1.264-6.135-2.509-9.296-1.452-3.694-3.477-7.397-3.821-11.385-0.303-3.487 0.284-6.691 0.854-10.082 0.434-2.602 1.372-6.794-0.017002-9.243-1.293-2.272-3.444-4.136-6.09-4.463-0.204-0.025002 0.6401 1.522 1.203 1.593 7.117 0.877 3.08 11.08 2.633 15.676-0.232 2.389-0.508 5.784 0.414 8.103 1.679 4.225 3.346 8.455 5.005 12.689 1.179 3.012 1.0231 6.512 0.825 9.691-0.185 3.017-0.691 5.95-1.616 8.832-1.055 3.285-2.582 6.457-4.317 9.434-0.644 1.1-3.557 0.885-4.712 0.877-1.317-0.012001-2.682-0.188-3.961-0.512 0.375 0.34 0.7561 0.68 1.134 1.021-1.838-2.937-2.865-6.452-3.942-9.72-0.906-2.745-1.612-5.252-1.793-8.175-0.197-3.318 0.087002-6.721 0.646-9.995 0.4351-2.53 1.859-5.028 2.908-7.341 1.058-2.337 2.1091-4.462 2.56-7.025 0.632-3.609 0.2731-7.4-0.341-10.985-0.4419-2.58-1.116-5.086-0.904-7.739 0.211-2.637 2.998-4.627 5.463-4.832 0.322-0.026001-0.676-1.636-1.205-1.592z"/>
  <path d="m32.61 40.111c-3.64-0.57699-6.248-0.50399-8.049-0.233l0.173 4.083c2.75-0.71902 5.564-0.55402 7.821-0.15601-0.11899-1.059-0.048012-2.518 0.054989-3.694z"/>
  <path d="m32.772 45.486c-4.031-0.61999-6.793-0.45098-8.572-0.097012l-0.976 4.583c3.688-1.565 7.758-1.197 10.603-0.577l-1.055-3.909z"/>
  <polygon points="27.244 51.407 26.809 44.378 27.327 38.067 26.194 37.419 26.041 44.374 25.869 51.974" fill="#fff"/>
 </g>
 <g stroke-width="5">
  <circle cx="47.827" cy="69.953" r="25.133" stroke="#000"/>
  <g fill="#fff" stroke="#fff">
   <circle cx="35.702" cy="55.265" r="1.25"/>
   <circle cx="47.201" cy="50.515" r="1.25"/>
   <circle cx="44.951" cy="61.39" r="1.25"/>
  </g>
 </g>
 <g transform="rotate(265.89 40.406 85.445)">
  <path d="m40.507 46.795s-5.418 0.375-6.446 5.701c0 0-0.28 3.083 0.56 6.633 0 0 2.991 11.773-0.373 19.435 0 0-4.674 9.811-5.046 12.055 0 0-1.776 9.624-0.093998 16.725 0 0 3.55 12.147 6.168 16.165 0 0 5.324 1.401 9.904-0.093002 0 0 5.511-8.971 6.633-17.098 0 0 1.402-8.598-0.094002-14.765 0 0-3.177-8.13-6.261-15.885 0 0-1.025-4.671-0.186-10.84 0 0 2.242-9.436 1.027-13.922 9.99e-4 0-1.866-3.831-5.792-4.111z" fill="#fff"/>
  <path d="m39.906 45.998c-2.43 0.19699-4.654 1.627-5.851 3.731-1.516 2.675-0.68003 6.451-0.037022 9.245 0.828 3.603 1.188 7.337 1.087 11.029-0.097992 3.605-1.074 6.749-2.562 9.969-1.373 2.965-2.804 5.961-3.829 9.07-0.85202 2.588-0.87899 5.612-1.006 8.297-0.34299 7.417 1.849 14.059 4.588 20.86 0.77698 1.934 1.762 5.718 4.118 6.228 1.985 0.43 4.028 0.53902 6.052 0.41599 1.528-0.089996 3.092-0.107 3.873-1.465 3.93-6.836 6.332-14.119 6.735-21.992 0.18899-3.744 0.039001-7.498-1.335-11.002-0.83099-2.123-1.664-4.242-2.5-6.361-0.47299-1.199-0.94699-2.399-1.422-3.598-0.53702-1.365-1.386-2.854-1.68-4.291-0.71601-3.515-0.806-7.623-0.03302-11.12 0.78-3.534 1.354-7.198 1.259-10.826-0.10699-4.085-3.317-7.7-7.457-8.19-0.20898-0.02301 0.638 1.525 1.205 1.593 8.203 0.97097 3.999 12.108 3.345 17.339-0.31601 2.534-0.29602 5.115-0.060032 7.655 0.077999 0.84601 0.10702 1.87 0.42602 2.672 1.939 4.876 3.862 9.759 5.776 14.648 1.426 3.635 1.212 7.867 0.94198 11.703-0.246 3.516-0.88199 6.92-2.007 10.267-1.226 3.647-2.925 7.178-4.874 10.494-0.73499 1.249-4.599 0.95902-5.904 0.91299-1.362-0.046989-2.76-0.23199-4.084-0.57098 0.379 0.34 0.75901 0.67899 1.136 1.021-2.094-3.328-3.269-7.322-4.496-11.029-0.999-3.015-1.861-5.812-2.113-9.004-0.31799-3.995 0.019009-8.098 0.66202-12.045 0.44998-2.748 1.924-5.426 3.052-7.939 1.141-2.546 2.45-4.966 3.082-7.701 0.97501-4.216 0.625-8.738-0.020988-12.978-0.48401-3.171-1.341-6.19-1.221-9.446 0.12399-3.218 3.104-5.487 6.055-5.961 0.10101-0.016998 0.202-0.028008 0.30499-0.037018 0.31601-0.026981-0.67999-1.635-1.206-1.594z"/>
  <path d="m45.025 66.911c-4.207-0.66602-7.221-0.58301-9.301-0.26901l0.199 4.716c3.177-0.827 6.428-0.63699 9.038-0.17798-0.134-1.222-0.053009-2.91 0.064003-4.269z"/>
  <path d="m45.213 73.124c-4.6611-0.72-7.8541-0.522-9.9071-0.111l-1.127 5.295c4.259-1.808 8.964-1.382 12.253-0.66701l-1.2189-4.517z"/>
  <polygon points="38.826 79.966 38.319 71.841 38.92 64.548 37.612 63.8 37.431 71.838 37.237 80.62" fill="#fff"/>
 </g>
 <g transform="rotate(-8.8448 82.275 58.268)">
  <g transform="rotate(7.2433 83.98 58.16)">
   <path d="m84.08 19.509s-5.416 0.375-6.447 5.702c0 0-0.28 3.082 0.56198 6.634 0 0 2.991 11.772-0.37299 19.435 0 0-4.674 9.81-5.045 12.052 0 0-1.776 9.625-0.095001 16.727 0 0 3.549 12.147 6.167 16.165 0 0 5.326 1.401 9.903-0.092995 0 0 5.514-8.971 6.637-17.1 0 0 1.399-8.596-0.097992-14.764 0 0-3.174-8.13-6.258-15.883 0 0-1.028-4.672-0.18701-10.84 0 0 2.241-9.438 1.027-13.923 0.001007-0.001001-1.868-3.832-5.793-4.112z" fill="#fff"/>
   <path d="m83.479 18.713c-2.429 0.19599-4.653 1.627-5.85 3.73-1.516 2.675-0.67999 6.452-0.037994 9.245 0.828 3.603 1.191 7.337 1.089 11.029-0.10199 3.605-1.073 6.749-2.563 9.967-1.372 2.967-2.803 5.963-3.827 9.072-0.85202 2.587-0.88202 5.612-1.007 8.295-0.34299 7.418 1.85 14.061 4.587 20.863 0.77801 1.932 1.764 5.717 4.119 6.227 1.987 0.42899 4.028 0.53899 6.051 0.418 1.528-0.094025 3.094-0.108 3.874-1.468 3.928-6.837 6.335-14.118 6.735-21.993 0.18903-3.744 0.039001-7.495-1.337-11.002-0.82901-2.119-1.661-4.24-2.498-6.359-0.47299-1.199-0.94699-2.4-1.423-3.598-0.537-1.365-1.387-2.855-1.678-4.291-0.717-3.515-0.80701-7.623-0.03302-11.119 0.78001-3.536 1.354-7.198 1.258-10.828-0.10897-4.083-3.318-7.698-7.459-8.188-0.207-0.02301 0.638 1.525 1.205 1.592 8.205 0.97098 3.999 12.11 3.347 17.34-0.31702 2.534-0.29602 5.115-0.060997 7.656 0.077995 0.84403 0.10598 1.869 0.42599 2.67 1.938 4.879 3.861 9.76 5.774 14.646 1.425 3.637 1.214 7.869 0.944 11.705-0.246 3.515-0.881 6.917-2.006 10.267-1.226 3.646-2.926 7.177-4.875 10.494-0.73402 1.249-4.6 0.957-5.902 0.91201-1.363-0.046021-2.763-0.233-4.085-0.57101 0.37698 0.34 0.75699 0.681 1.135 1.021-2.093-3.33-3.269-7.321-4.498-11.029-0.99701-3.014-1.859-5.812-2.11-9.004-0.31803-3.996 0.016991-8.099 0.66-12.046 0.45099-2.747 1.925-5.427 3.053-7.938 1.141-2.545 2.45-4.967 3.082-7.702 0.978-4.217 0.625-8.739-0.020996-12.977-0.48599-3.173-1.343-6.19-1.222-9.448 0.12298-3.219 3.101-5.486 6.055-5.961 0.098999-0.016991 0.20301-0.027 0.30399-0.03701 0.31702-0.023991-0.67798-1.632-1.205-1.59z"/>
  </g>
  <g transform="rotate(11.899 85.572 41.471)">
   <path d="m90.224 39.499c-4.207-0.665-7.22-0.58001-9.301-0.26699l0.199 4.714c3.176-0.82599 6.426-0.63501 9.035-0.176-0.13303-1.223-0.050018-2.91 0.066986-4.271z"/>
  </g>
  <g transform="rotate(11.057 85.002 48.19)">
   <path d="m89.913 45.838c-4.662-0.71899-7.854-0.52099-9.907-0.11001l-1.129 5.293c4.26-1.807 8.964-1.381 12.253-0.66599l-1.217-4.517z"/>
  </g>
  <g transform="rotate(5.2369 83.9 44.301)">
   <polygon points="84.65 52.054 84.146 43.932 84.744 36.637 83.436 35.889 83.257 43.927 83.06 52.71" fill="#fff"/>
  </g>
 </g>
 <path d="m66.454 12.567s-6.031 0.415-7.1749 6.346c0 0-0.3121 3.432 0.6219 7.383 0 0 3.329 13.104-0.414 21.632 0 0-5.201 10.919-5.617 13.415 0 0-1.976 10.712-0.1039 18.617 0 0 3.953 13.519 6.8639 17.992 0 0 5.928 1.559 11.023-0.104 0 0 6.138-9.983 7.3851-19.032 0 0 1.5609-9.566-0.104-16.432 0 0-3.5381-9.049-6.97-17.681 0 0-1.1431-5.199-0.2061-12.063 0 0 2.4951-10.505 1.145-15.496 0.001091 0-2.08-4.265-6.449-4.577z" fill="#fff"/>
 <path d="m65.853 11.77c-2.27 0.182-4.445 1.382-5.861 3.137-2.331 2.894-1.609 7.541-0.785 10.834 1.66 6.615 2.528 15.227-0.471 21.559-2.169 4.571-5.009 9.478-5.773 14.527-1.085 7.161-1 14.202 1.198 21.109 1.154 3.637 2.4 7.253 3.893 10.766 0.931 2.196 1.734 4.792 4.271 5.279 2.16 0.417 4.372 0.511 6.562 0.342 1.464-0.114 3.129-0.128 3.895-1.448 1.99-3.441 3.669-7.073 5.03-10.807 1.265-3.478 1.97-7.054 2.33-10.723 0.214-2.183 0.298-4.377 0.271-6.567-0.027-2.11-0.002998-4.843-0.786-6.843-1.377-3.528-2.764-7.053-4.152-10.574-0.903-2.289-2.334-4.779-2.826-7.177-0.328-1.599-0.439-3.243-0.51099-4.869-0.276-6.269 1.776-12.208 1.884-18.452 0.041-2.255-0.176-4.084-1.489-5.902-1.609-2.219-3.924-3.881-6.68-4.191-0.21-0.021999 0.639 1.53 1.204 1.593 2.184 0.246 3.979 1.328 5.125 3.212 0.793 1.308 0.425 3.955 0.352 5.423-0.161 3.283-0.73 6.575-1.453 9.777-0.843 3.727-0.542 8.054 0.080002 11.807 0.288 1.725 1.236 3.401 1.878 5.019 1.144 2.891 2.283 5.786 3.421 8.683 1.412 3.601 2.344 6.524 2.501 10.489 0.137 3.432-0.104 6.934-0.637 10.326-0.799 5.103-2.663 9.916-4.938 14.529-0.647 1.32-1.35 2.617-2.087 3.893-0.876 1.516-4.011 1.275-5.581 1.298-1.89 0.026001-3.857-0.192-5.69-0.663 0.38 0.34 0.758 0.68 1.137 1.021-3.287-5.207-4.977-11.771-6.694-17.646-1.388-4.732-0.896-10.301-0.356-15.137 0.259-2.322 0.672-4.326 1.529-6.504 1.259-3.2 2.716-6.326 4.176-9.439 1.543-3.289 2.084-6.804 2.162-10.419 0.077999-3.678-0.377-7.395-1.113-10.994-0.627-3.062-1.497-6.431-0.59-9.512 0.848-2.881 3.856-4.929 6.78-5.164 0.316-0.023999-0.677-1.632-1.206-1.592z"/>
 <path d="m71.482 34.705c-4.682-0.74-8.036-0.646-10.353-0.297l0.226 5.25c3.533-0.922 7.152-0.71 10.055-0.198-0.151-1.362-0.056999-3.241 0.071999-4.755z"/>
 <path d="m71.442 42.122c-5.188-0.80099-8.738-0.57999-11.025-0.125l-1.256 5.895c4.743-2.013 9.977-1.538 13.641-0.742l-1.36-5.028z"/>
 <polygon points="64.332 49.236 63.77 40.194 64.436 32.078 62.981 31.244 62.783 40.191 62.564 49.965" fill="#fff"/>
</svg>
